<svg width="279" height="58" viewBox="0 0 279 58" fill="none" xmlns="http://www.w3.org/2000/svg">
<path d="M39.2057 44.2639C40.1315 44.2639 40.882 43.5133 40.882 42.5875C40.882 41.6617 40.1315 40.9111 39.2057 40.9111C38.2798 40.9111 37.5293 41.6617 37.5293 42.5875C37.5293 43.5133 38.2798 44.2639 39.2057 44.2639Z" fill="#20505B"/>
<path d="M12.9829 26.0557L32.6306 32.6446C30.8113 38.0701 24.9385 40.9929 19.5119 39.1733C14.0864 37.354 11.1635 31.4811 12.9829 26.0557Z" fill="#20505B"/>
<path d="M22.9072 36.7773C26.9614 36.7773 30.248 33.4907 30.248 29.4365C30.248 25.3823 26.9614 22.0957 22.9072 22.0957C18.853 22.0957 15.5664 25.3823 15.5664 29.4365C15.5664 33.4907 18.853 36.7773 22.9072 36.7773Z" fill="#154047"/>
<path d="M22.9071 33.4558C25.127 33.4558 26.9265 31.6563 26.9265 29.4364C26.9265 27.2166 25.127 25.417 22.9071 25.417C20.6873 25.417 18.8877 27.2166 18.8877 29.4364C18.8877 31.6563 20.6873 33.4558 22.9071 33.4558Z" fill="#092A2D"/>
<path d="M33.1428 28.6521L14.981 22.5608C17.65 19.4867 22.0019 18.1504 26.1008 19.5254C30.2008 20.9008 32.868 24.5901 33.1428 28.6521Z" fill="#20505B"/>
<path d="M32.6302 32.6448L36.5228 33.9497C33.982 41.5245 25.7817 45.6057 18.2066 43.066C10.6315 40.5263 6.55125 32.3265 9.08986 24.751L12.9824 26.0559C11.163 31.4814 14.086 37.3542 19.5115 39.1735C24.938 40.9932 30.8109 38.0702 32.6302 32.6448Z" fill="#3A50E0"/>
<path d="M44.16 35.239C44.4839 35.396 44.5596 35.7109 44.4722 35.9726C44.376 36.2606 44.0812 36.4848 43.7044 36.3578L36.5229 33.9495L32.6304 32.6446L12.9826 26.0557L9.09009 24.7508L9.09049 24.7497L1.90885 22.3413C1.19097 22.1016 1.47674 21.0263 2.21927 21.1741C3.95904 21.5193 5.72356 21.4169 7.36778 20.9139C9.01377 20.4127 10.5391 19.512 11.7981 18.2632C15.8576 14.2385 21.9841 12.5978 27.7731 14.5397C33.5624 16.4805 37.4617 21.4831 38.2735 27.1421C38.7764 30.6523 40.9673 33.6936 44.16 35.239ZM14.9807 22.5608L33.1426 28.6521C32.8678 24.5901 30.2005 20.9008 26.1005 19.5254C22.0016 18.1504 17.6497 19.4868 14.9807 22.5608Z" fill="#00FFBB"/>
<path d="M22.8058 45.8735C21.0568 45.8735 19.291 45.595 17.5718 45.0209L17.5519 45.0142C15.6167 44.3654 13.8427 43.3801 12.2807 42.0863C12.071 41.9125 12.0418 41.6017 12.2155 41.3921C12.3892 41.1824 12.7 41.1531 12.9097 41.3269C14.3779 42.543 16.0457 43.4693 17.8667 44.0798L17.8828 44.0852C23.7911 46.0583 30.2873 44.3187 34.4339 39.6538C34.6149 39.4503 34.9264 39.4319 35.1301 39.6127C35.3335 39.7937 35.3519 40.1053 35.171 40.3088C31.9686 43.9116 27.4474 45.8735 22.8058 45.8735ZM10.7975 40.4548C10.6607 40.4548 10.5247 40.3983 10.4273 40.2875C7.26816 36.7001 5.80736 31.9391 6.41953 27.2256C6.45454 26.9556 6.70234 26.7654 6.97204 26.8002C7.24203 26.8353 7.43255 27.0826 7.39744 27.3527C6.82186 31.7846 8.19588 36.2617 11.1673 39.636C11.3472 39.8403 11.3275 40.1518 11.1231 40.3319C11.0295 40.4142 10.9133 40.4548 10.7975 40.4548ZM36.1821 38.6791C36.0888 38.6791 35.9944 38.6526 35.9107 38.5973C35.6835 38.4472 35.6211 38.1412 35.7713 37.9141C36.106 37.4077 36.414 36.8757 36.6867 36.3329C36.8089 36.0896 37.1054 35.9914 37.3485 36.1137C37.5919 36.2359 37.69 36.5323 37.5678 36.7756C37.2777 37.3531 36.95 37.9191 36.5939 38.4579C36.499 38.6013 36.3421 38.6791 36.1821 38.6791ZM42.9729 33.1157C42.861 33.1157 42.7485 33.0778 42.656 33.0001C40.8506 31.483 39.6702 29.3486 39.3322 26.9899C39.2935 26.7203 39.4808 26.4706 39.7503 26.4319C40.0204 26.3931 40.2696 26.5806 40.3082 26.85C40.6117 28.9682 41.6708 30.8842 43.2904 32.245C43.4988 32.4202 43.5258 32.7313 43.3506 32.9397C43.2532 33.0559 43.1135 33.1157 42.9729 33.1157ZM39.2707 24.9192C39.0586 24.9192 38.8626 24.7812 38.7986 24.5675C38.1615 22.4404 37.1249 20.4896 35.7177 18.7692C34.6705 17.4889 33.4414 16.375 32.0645 15.4587C31.8378 15.3079 31.7764 15.0018 31.9273 14.7751C32.078 14.5485 32.3838 14.4868 32.6109 14.6377C34.0695 15.6084 35.3716 16.7885 36.481 18.1449C37.971 19.9664 39.0685 22.032 39.7433 24.2845C39.8214 24.5453 39.6732 24.8201 39.4124 24.8982C39.3652 24.9125 39.3176 24.9192 39.2707 24.9192ZM6.91041 19.9127C6.69909 19.9127 6.50364 19.7758 6.43896 19.5632C6.35967 19.3026 6.5065 19.0271 6.76703 18.9478C7.43481 18.7445 8.08051 18.4576 8.68597 18.0953C8.91978 17.9555 9.22241 18.0316 9.36224 18.2653C9.50207 18.4989 9.42594 18.8017 9.19233 18.9415C8.51804 19.345 7.79868 19.6645 7.05428 19.8911C7.00636 19.9057 6.95794 19.9127 6.91041 19.9127ZM10.6977 17.6467C10.5708 17.6467 10.444 17.598 10.3475 17.5008C10.1558 17.3075 10.1571 16.9953 10.3505 16.8036C12.6419 14.5318 15.5126 12.9282 18.6522 12.1662C21.8739 11.3843 25.2462 11.5285 28.4043 12.5833L28.4269 12.5909C28.9944 12.7811 29.5581 13.0024 30.1022 13.2484C30.3503 13.3606 30.4605 13.6527 30.3482 13.9008C30.2361 14.1489 29.9442 14.2593 29.6958 14.1469C29.1819 13.9146 28.6495 13.7055 28.1132 13.5258L28.093 13.5191C25.1099 12.5227 21.9261 12.3864 18.8848 13.1246C15.9197 13.8443 13.2086 15.3586 11.0448 17.504C10.9487 17.599 10.8231 17.6467 10.6977 17.6467Z" fill="#383839"/>
<path d="M22.7939 44.3103C21.2205 44.3103 19.6219 44.0602 18.05 43.5332C10.3868 40.9638 6.17193 32.752 8.47387 25.0627L1.75215 22.8087C1.18642 22.6197 0.886649 22.0634 1.03979 21.4861C1.19313 20.9084 1.72976 20.5738 2.3155 20.6904C3.94108 21.0129 5.63845 20.927 7.2235 20.4423C8.80707 19.9601 10.2687 19.0855 11.4509 17.9129C13.5401 15.8416 16.1576 14.3795 19.0207 13.6847C21.964 12.9703 25.0447 13.1042 27.9298 14.0722C30.8152 15.0395 33.3539 16.79 35.2714 19.1343C37.1368 21.415 38.3436 24.1598 38.7615 27.072C39.2443 30.4403 41.3427 33.3275 44.3749 34.7951C44.8869 35.0434 45.1193 35.5917 44.94 36.1286C44.8451 36.4125 44.6425 36.6491 44.384 36.7776C44.1296 36.9043 43.8324 36.921 43.5469 36.8248L40.4225 35.7771C40.1643 35.6905 40.0253 35.411 40.1119 35.1528C40.1986 34.8946 40.4782 34.7558 40.7361 34.842L43.8612 35.8901C43.9169 35.9089 43.9379 35.8981 43.9448 35.8947C43.9693 35.8826 43.9927 35.8517 44.0046 35.8162C44.0347 35.726 43.9806 35.6997 43.9448 35.6825C40.6174 34.0719 38.3146 30.9052 37.7854 27.2119C37.393 24.4776 36.2598 21.9003 34.5082 19.7587C32.7084 17.5584 30.3253 15.9153 27.6164 15.0071C24.9075 14.0984 22.0156 13.9725 19.2533 14.6429C16.5648 15.2954 14.1068 16.6684 12.1452 18.6132C10.8496 19.8982 9.24716 20.8569 7.51134 21.3855C5.77167 21.9176 3.90844 22.0118 2.12321 21.6576C2.08426 21.6498 2.01987 21.6371 1.99285 21.7391C1.96593 21.8406 2.02796 21.8613 2.06503 21.8736L9.24707 24.282C9.5001 24.3669 9.63963 24.6377 9.56193 24.8931C9.56065 24.8975 9.55887 24.903 9.55739 24.9073C7.10911 32.2133 11.0594 40.1495 18.3633 42.5983C25.6685 45.0477 33.605 41.0972 36.0554 33.7925C36.142 33.5344 36.4217 33.3954 36.6796 33.4819L37.8786 33.884C38.1367 33.9706 38.2758 34.2501 38.1892 34.5083C38.1026 34.7666 37.8231 34.9055 37.565 34.8191L36.8258 34.5712C34.6016 40.5498 28.8918 44.3101 22.7939 44.3103Z" fill="#383839"/>
<path d="M22.8171 40.2097C21.6552 40.2097 20.4887 40.021 19.3548 39.6407C16.606 38.7189 14.3807 36.7819 13.0889 34.1864C11.7971 31.591 11.5933 28.6478 12.5151 25.8989C12.6016 25.6407 12.8812 25.5017 13.1394 25.5882C13.3975 25.6748 13.5367 25.9542 13.4501 26.2125C11.7202 31.3714 14.5097 36.9759 19.6685 38.7058C22.1681 39.544 24.8442 39.3588 27.2041 38.1845C29.5639 37.01 31.3248 34.987 32.1629 32.4878C32.2495 32.2296 32.5291 32.0906 32.7871 32.1771C33.0453 32.2637 33.1843 32.5431 33.0977 32.8014C32.1759 35.5502 30.239 37.7755 27.6434 39.0673C26.1183 39.8262 24.4725 40.2096 22.8171 40.2097Z" fill="#383839"/>
<path d="M33.1426 29.1451C33.09 29.1451 33.0371 29.1368 32.9858 29.1195L14.824 23.0283C14.668 22.9759 14.5484 22.8492 14.5051 22.6904C14.4619 22.5317 14.5007 22.3618 14.6086 22.2375C17.5035 18.9032 22.0762 17.6551 26.2574 19.0579C28.9167 19.95 31.1003 21.8076 32.4061 24.2886C32.5329 24.5295 32.4404 24.8277 32.1994 24.9545C31.9585 25.0813 31.6602 24.9888 31.5334 24.7478C30.3463 22.4924 28.3612 20.8037 25.9437 19.9927C22.3798 18.797 18.5041 19.7195 15.8647 22.3371L32.5716 27.9404C32.4895 27.3741 32.3581 26.8145 32.1787 26.2691C32.0937 26.0104 32.2343 25.7318 32.4931 25.6467C32.7516 25.5614 33.0304 25.7023 33.1156 25.9609C33.399 26.8226 33.5736 27.7168 33.6346 28.6187C33.6457 28.7828 33.5742 28.9417 33.4439 29.0422C33.3564 29.1099 33.2502 29.1451 33.1426 29.1451Z" fill="#383839"/>
<path d="M36.5232 34.442C36.4712 34.442 36.4184 34.4337 36.3664 34.4163L27.5282 31.4528C27.2701 31.3663 27.131 31.0868 27.2176 30.8285C27.3043 30.5704 27.584 30.4314 27.8418 30.5178L36.6798 33.4812C36.938 33.5678 37.0771 33.8473 36.9905 34.1054C36.9215 34.3117 36.7293 34.442 36.5232 34.442Z" fill="#383839"/>
<path d="M25.4139 30.7176C25.3619 30.7176 25.309 30.7093 25.257 30.6919L7.26851 24.6598C7.01035 24.5732 6.87122 24.2938 6.95789 24.0356C7.04447 23.7774 7.32413 23.6383 7.58209 23.725L25.5706 29.757C25.8287 29.8436 25.9678 30.1231 25.8812 30.3813C25.812 30.5874 25.62 30.7176 25.4139 30.7176Z" fill="#383839"/>
<path d="M38.3135 33.0318C38.2613 33.0318 38.2084 33.0235 38.1568 33.0062L34.1493 31.6623C33.8912 31.5757 33.7521 31.2962 33.8387 31.0381C33.9254 30.7799 34.205 30.6408 34.4629 30.7274L37.229 31.6551C36.738 30.7039 36.3657 29.6952 36.1178 28.6433C36.0554 28.3783 36.2196 28.1128 36.4847 28.0504C36.7504 27.9879 37.0153 28.1522 37.0777 28.4172C37.4021 29.794 37.9568 31.09 38.7266 32.2694C38.8413 32.4452 38.8321 32.6743 38.7038 32.8404C38.6086 32.9633 38.4633 33.0318 38.3135 33.0318Z" fill="white"/>
<path d="M36.2505 27.1212C36.0207 27.1212 35.815 26.9597 35.7677 26.7257C35.3075 24.4467 34.2587 22.3286 32.7347 20.6005C31.2058 18.8671 29.2265 17.558 27.0103 16.8149L26.9952 16.8099C23.7882 15.7388 20.3457 15.9199 17.3006 17.3197C17.0532 17.4333 16.7604 17.325 16.6467 17.0776C16.533 16.8302 16.6414 16.5374 16.8888 16.4237C20.1624 14.919 23.8622 14.7239 27.307 15.8744L27.3227 15.8796C29.7042 16.6783 31.831 18.0851 33.4744 19.9483C35.1127 21.8061 36.24 24.0821 36.7345 26.5305C36.7883 26.7975 36.6157 27.0575 36.3487 27.1114C36.3157 27.118 36.2828 27.1212 36.2505 27.1212Z" fill="white"/>
<path d="M10.4082 22.1717C10.2356 22.1717 10.0681 22.0809 9.97765 21.9196C9.84443 21.6821 9.92904 21.3816 10.1666 21.2484C11.1248 20.7112 12.0084 20.0444 12.7931 19.2666C13.4954 18.5703 14.2687 17.9464 15.0917 17.4125C15.3203 17.2644 15.6256 17.3292 15.7737 17.5577C15.9219 17.7861 15.857 18.0915 15.6285 18.2397C14.8621 18.737 14.1416 19.3182 13.4873 19.967C12.6395 20.8073 11.6846 21.5278 10.6488 22.1086C10.5727 22.1513 10.4898 22.1717 10.4082 22.1717Z" fill="white"/>
<path d="M13.0121 24.5473C12.9602 24.5473 12.9073 24.539 12.8553 24.5216L8.35499 23.0125C8.09683 22.9259 7.95769 22.6464 8.04427 22.3882C8.13085 22.13 8.41021 21.991 8.66857 22.0774L13.1688 23.5866C13.427 23.6731 13.5661 23.9526 13.4795 24.2108C13.4105 24.417 13.2182 24.5473 13.0121 24.5473Z" fill="white"/>
<path d="M15.9044 25.5172C15.8524 25.5172 15.7996 25.5089 15.7476 25.4915L14.4619 25.0603C14.2038 24.9738 14.0646 24.6943 14.1512 24.436C14.2378 24.1779 14.5172 24.0387 14.7755 24.1253L16.0612 24.5564C16.3193 24.643 16.4585 24.9225 16.3719 25.1807C16.3027 25.387 16.1105 25.5172 15.9044 25.5172Z" fill="white"/>
<path d="M31.6544 30.7991C31.6024 30.7991 31.5496 30.7908 31.4975 30.7733L17.6763 26.1385C17.4181 26.0519 17.279 25.7724 17.3656 25.5142C17.4521 25.256 17.7316 25.1169 17.9899 25.2035L31.8111 29.8383C32.0692 29.9249 32.2083 30.2043 32.1217 30.4626C32.0526 30.6688 31.8605 30.7991 31.6544 30.7991Z" fill="white"/>
<path d="M13.6384 37.9907C13.5021 37.9907 13.3665 37.9346 13.2691 37.8245C10.8377 35.0794 9.69599 31.4291 10.1369 27.8094C10.1698 27.5391 10.4158 27.3469 10.6859 27.3796C10.9562 27.4125 11.1487 27.6584 11.1158 27.9286C10.709 31.2683 11.7629 34.6369 14.0072 37.1707C14.1878 37.3746 14.1689 37.6863 13.9651 37.8667C13.8713 37.9498 13.7545 37.9907 13.6384 37.9907Z" fill="white"/>
<path d="M16.0337 40.0746C15.9403 40.0746 15.8457 40.048 15.762 39.9925C15.5308 39.8395 15.3021 39.6769 15.0821 39.5093C14.8654 39.3444 14.8235 39.035 14.9886 38.8184C15.1536 38.6017 15.463 38.5598 15.6795 38.7249C15.8824 38.8793 16.0933 39.0292 16.3065 39.1705C16.5335 39.3208 16.5957 39.6268 16.4453 39.8538C16.3505 39.997 16.1936 40.0746 16.0337 40.0746Z" fill="white"/>
<path d="M22.8065 42.1123C21.4541 42.1123 20.0906 41.8965 18.7648 41.4537L18.751 41.4492C18.3865 41.3269 18.0257 41.1877 17.6767 41.0349C17.4273 40.9256 17.3136 40.6348 17.4229 40.3855C17.5322 40.1361 17.823 40.0226 18.0723 40.1316C18.3945 40.2728 18.7277 40.4013 19.0627 40.5137L19.0768 40.5184C23.2209 41.9022 27.7678 40.8829 30.9434 37.8578C31.1408 37.6699 31.4527 37.6774 31.6404 37.8747C31.8283 38.0719 31.8207 38.3839 31.6236 38.5717C29.1988 40.8818 26.0351 42.1123 22.8065 42.1123Z" fill="white"/>
<path d="M32.7178 37.0745C32.6169 37.0745 32.5149 37.0437 32.4273 36.9795C32.2075 36.8188 32.1594 36.5104 32.3201 36.2905C32.5979 35.9103 32.8553 35.5092 33.085 35.0983C33.2177 34.8607 33.5179 34.7756 33.7559 34.9085C33.9936 35.0413 34.0786 35.3418 33.9457 35.5794C33.6968 36.025 33.4177 36.4601 33.1163 36.8724C33.0197 37.0044 32.8697 37.0745 32.7178 37.0745Z" fill="white"/>
<path d="M39.1259 35.3208C39.0933 35.3208 39.0618 35.3179 39.0292 35.3119C38.9977 35.305 38.9671 35.2952 38.9375 35.2833C38.9078 35.2705 38.8793 35.2557 38.8517 35.238C38.825 35.2202 38.8003 35.1995 38.7768 35.1768C38.685 35.0851 38.6328 34.9579 38.6328 34.8278C38.6328 34.7962 38.6357 34.7637 38.6427 34.7321C38.6486 34.7006 38.6585 34.669 38.6703 34.6394C38.6831 34.6098 38.6978 34.5812 38.7156 34.5546C38.7334 34.527 38.7541 34.5024 38.7768 34.4797C38.8003 34.457 38.825 34.4363 38.8517 34.4185C38.8793 34.3998 38.9078 34.385 38.9375 34.3732C38.9671 34.3604 38.9976 34.3505 39.0292 34.3446C39.0933 34.3318 39.1584 34.3318 39.2225 34.3446C39.2541 34.3505 39.2846 34.3604 39.3142 34.3732C39.3439 34.385 39.3725 34.3998 39.4 34.4185C39.4267 34.4363 39.4523 34.457 39.4749 34.4797C39.4976 34.5024 39.5183 34.527 39.5361 34.5546C39.5539 34.5812 39.5686 34.6098 39.5814 34.6394C39.5933 34.669 39.6032 34.7006 39.609 34.7321C39.6159 34.7637 39.619 34.7962 39.619 34.8278C39.619 34.9579 39.5667 35.0851 39.4749 35.1768C39.3821 35.2685 39.2549 35.3208 39.1259 35.3208Z" fill="#383839"/>
<path d="M39.0888 33.2912C39.0371 33.2912 38.9843 33.283 38.9325 33.2656L38.1573 33.0067C37.899 32.9204 37.7596 32.6411 37.8459 32.3828C37.9321 32.1244 38.2117 31.9854 38.4697 32.0713L39.2449 32.3302C39.5032 32.4165 39.6426 32.6959 39.5563 32.9541C39.4874 33.1606 39.2951 33.2912 39.0888 33.2912Z" fill="white"/>
<path d="M8.31925 22.9797C8.26748 22.9797 8.21482 22.9715 8.16305 22.9541L7.38778 22.6952C7.12952 22.6089 6.99009 22.3296 7.07627 22.0713C7.16265 21.813 7.44202 21.6738 7.70018 21.7598L8.47544 22.0187C8.7337 22.105 8.87314 22.3844 8.78695 22.6426C8.71783 22.8491 8.52554 22.9797 8.31925 22.9797Z" fill="white"/>
<path d="M39.206 44.7568C38.0098 44.7568 37.0366 43.7836 37.0366 42.5874C37.0366 41.3911 38.0098 40.418 39.206 40.418C40.4023 40.418 41.3754 41.3911 41.3754 42.5874C41.3754 43.7836 40.4023 44.7568 39.206 44.7568ZM39.206 41.4041C38.5535 41.4041 38.0227 41.9349 38.0227 42.5874C38.0227 43.2399 38.5535 43.7707 39.206 43.7707C39.8585 43.7707 40.3893 43.2399 40.3893 42.5874C40.3893 41.9349 39.8585 41.4041 39.206 41.4041Z" fill="#383839"/>
<path d="M59.6424 46L51.0984 12.4H57.6264L64.7304 41.92H65.4024L72.5064 12.4H79.0344L70.4904 46H59.6424ZM89.7051 46.672C88.0091 46.672 86.4891 46.384 85.1451 45.808C83.8011 45.2 82.7291 44.336 81.9291 43.216C81.1611 42.064 80.7771 40.672 80.7771 39.04C80.7771 37.408 81.1611 36.048 81.9291 34.96C82.7291 33.84 83.8171 33.008 85.1931 32.464C86.6011 31.888 88.2011 31.6 89.9931 31.6H96.5211V30.256C96.5211 29.136 96.1691 28.224 95.4651 27.52C94.7611 26.784 93.6411 26.416 92.1051 26.416C90.6011 26.416 89.4811 26.768 88.7451 27.472C88.0091 28.144 87.5291 29.024 87.3051 30.112L81.7371 28.24C82.1211 27.024 82.7291 25.92 83.5611 24.928C84.4251 23.904 85.5611 23.088 86.9691 22.48C88.4091 21.84 90.1531 21.52 92.2011 21.52C95.3371 21.52 97.8171 22.304 99.6411 23.872C101.465 25.44 102.377 27.712 102.377 30.688V39.568C102.377 40.528 102.825 41.008 103.721 41.008H105.641V46H101.609C100.425 46 99.4491 45.712 98.6811 45.136C97.9131 44.56 97.5291 43.792 97.5291 42.832V42.784H96.6171C96.4891 43.168 96.2011 43.68 95.7531 44.32C95.3051 44.928 94.6011 45.472 93.6411 45.952C92.6811 46.432 91.3691 46.672 89.7051 46.672ZM90.7611 41.776C92.4571 41.776 93.8331 41.312 94.8891 40.384C95.9771 39.424 96.5211 38.16 96.5211 36.592V36.112H90.4251C89.3051 36.112 88.4251 36.352 87.7851 36.832C87.1451 37.312 86.8251 37.984 86.8251 38.848C86.8251 39.712 87.1611 40.416 87.8331 40.96C88.5051 41.504 89.4811 41.776 90.7611 41.776ZM110.563 46V22.192H116.515V25.312H117.379C117.763 24.48 118.483 23.696 119.539 22.96C120.595 22.192 122.195 21.808 124.339 21.808C126.195 21.808 127.811 22.24 129.187 23.104C130.595 23.936 131.683 25.104 132.451 26.608C133.219 28.08 133.603 29.808 133.603 31.792V46H127.555V32.272C127.555 30.48 127.107 29.136 126.211 28.24C125.347 27.344 124.099 26.896 122.467 26.896C120.611 26.896 119.171 27.52 118.147 28.768C117.123 29.984 116.611 31.696 116.611 33.904V46H110.563ZM149.105 46C147.537 46 146.257 45.52 145.265 44.56C144.305 43.568 143.825 42.256 143.825 40.624V27.184H137.873V22.192H143.825V14.8H149.873V22.192H156.401V27.184H149.873V39.568C149.873 40.528 150.321 41.008 151.217 41.008H155.825V46H149.105ZM169.768 46.672C168.072 46.672 166.552 46.384 165.208 45.808C163.864 45.2 162.792 44.336 161.992 43.216C161.224 42.064 160.84 40.672 160.84 39.04C160.84 37.408 161.224 36.048 161.992 34.96C162.792 33.84 163.88 33.008 165.256 32.464C166.664 31.888 168.264 31.6 170.056 31.6H176.584V30.256C176.584 29.136 176.232 28.224 175.528 27.52C174.824 26.784 173.704 26.416 172.168 26.416C170.664 26.416 169.544 26.768 168.808 27.472C168.072 28.144 167.592 29.024 167.368 30.112L161.8 28.24C162.184 27.024 162.792 25.92 163.624 24.928C164.488 23.904 165.624 23.088 167.032 22.48C168.472 21.84 170.216 21.52 172.264 21.52C175.4 21.52 177.88 22.304 179.704 23.872C181.528 25.44 182.44 27.712 182.44 30.688V39.568C182.44 40.528 182.888 41.008 183.784 41.008H185.704V46H181.672C180.488 46 179.512 45.712 178.744 45.136C177.976 44.56 177.592 43.792 177.592 42.832V42.784H176.68C176.552 43.168 176.264 43.68 175.816 44.32C175.368 44.928 174.664 45.472 173.704 45.952C172.744 46.432 171.432 46.672 169.768 46.672ZM170.824 41.776C172.52 41.776 173.896 41.312 174.952 40.384C176.04 39.424 176.584 38.16 176.584 36.592V36.112H170.488C169.368 36.112 168.488 36.352 167.848 36.832C167.208 37.312 166.888 37.984 166.888 38.848C166.888 39.712 167.224 40.416 167.896 40.96C168.568 41.504 169.544 41.776 170.824 41.776Z" fill="#00FFBB"/>
<path d="M196.51 46L187.966 12.4H194.494L201.598 41.92H202.27L209.374 12.4H215.902L207.358 46H196.51ZM220.441 46V12.4H234.265C236.377 12.4 238.233 12.832 239.833 13.696C241.465 14.528 242.729 15.712 243.625 17.248C244.553 18.784 245.017 20.608 245.017 22.72V23.392C245.017 25.472 244.537 27.296 243.577 28.864C242.649 30.4 241.369 31.6 239.737 32.464C238.137 33.296 236.313 33.712 234.265 33.712H226.777V46H220.441ZM226.777 27.952H233.641C235.145 27.952 236.361 27.536 237.289 26.704C238.217 25.872 238.681 24.736 238.681 23.296V22.816C238.681 21.376 238.217 20.24 237.289 19.408C236.361 18.576 235.145 18.16 233.641 18.16H226.777V27.952ZM249.91 46V12.4H261.958L268.63 41.68H269.494V12.4H275.734V46H263.686L257.014 16.72H256.15V46H249.91Z" fill="#3A50E0"/>
</svg>
