<svg width="70" height="69" viewBox="0 0 70 69" fill="none" xmlns="http://www.w3.org/2000/svg">
<path d="M52.6791 51.1519C53.6891 51.1519 54.5079 50.3331 54.5079 49.3231C54.5079 48.3131 53.6891 47.4944 52.6791 47.4944C51.6691 47.4944 50.8503 48.3131 50.8503 49.3231C50.8503 50.3331 51.6691 51.1519 52.6791 51.1519Z" fill="#20505B"/>
<path d="M24.072 31.2883L45.506 38.4762C43.5212 44.3949 37.1145 47.5836 31.1946 45.5985C25.2759 43.6137 22.0873 37.207 24.072 31.2883Z" fill="#20505B"/>
<path d="M34.8985 42.9848C39.3213 42.9848 42.9067 39.3994 42.9067 34.9766C42.9067 30.5539 39.3213 26.9685 34.8985 26.9685C30.4757 26.9685 26.8904 30.5539 26.8904 34.9766C26.8904 39.3994 30.4757 42.9848 34.8985 42.9848Z" fill="#154047"/>
<path d="M34.8985 39.3615C37.3202 39.3615 39.2833 37.3983 39.2833 34.9766C39.2833 32.555 37.3202 30.5918 34.8985 30.5918C32.4768 30.5918 30.5137 32.555 30.5137 34.9766C30.5137 37.3983 32.4768 39.3615 34.8985 39.3615Z" fill="#092A2D"/>
<path d="M46.0647 34.121L26.2518 27.4759C29.1635 24.1224 33.911 22.6646 38.3825 24.1646C42.8553 25.665 45.765 29.6897 46.0647 34.121Z" fill="#20505B"/>
<path d="M45.5059 38.4762L49.7523 39.8997C46.9806 48.1631 38.0348 52.6154 29.7711 49.8448C21.5073 47.0742 17.0561 38.1289 19.8255 29.8647L24.0719 31.2883C22.0872 37.207 25.2759 43.6137 31.1946 45.5984C37.1144 47.5835 43.5212 44.3948 45.5059 38.4762Z" fill="#3A50E0"/>
<path d="M58.0838 41.3066C58.4371 41.478 58.5196 41.8215 58.4243 42.107C58.3193 42.4212 57.9978 42.6657 57.5868 42.5272L49.7524 39.9L45.506 38.4765L24.0721 31.2886L19.8257 29.865L19.8261 29.8638L11.9916 27.2365C11.2085 26.9749 11.5202 25.802 12.3302 25.9631C14.2282 26.3397 16.1531 26.2281 17.9468 25.6793C19.7424 25.1325 21.4064 24.1499 22.7799 22.7876C27.2084 18.397 33.8918 16.6072 40.2071 18.7256C46.5228 20.8429 50.7765 26.3002 51.6621 32.4737C52.2108 36.303 54.6008 39.6208 58.0838 41.3066ZM26.2518 27.4759L46.0647 34.121C45.765 29.6897 42.8552 25.665 38.3825 24.1646C33.911 22.6646 29.1634 24.1224 26.2518 27.4759Z" fill="#00FFBB"/>
<path d="M34.7881 52.9079C32.8802 52.9079 30.9538 52.6041 29.0783 51.9779L29.0566 51.9705C26.9454 51.2628 25.0102 50.1879 23.3062 48.7764C23.0775 48.5869 23.0455 48.2478 23.2351 48.0191C23.4245 47.7904 23.7636 47.7585 23.9924 47.948C25.5941 49.2747 27.4135 50.2852 29.4 50.9512L29.4176 50.9571C35.863 53.1095 42.9497 51.2118 47.4733 46.1228C47.6707 45.9009 48.0106 45.8808 48.2328 46.0781C48.4547 46.2755 48.4748 46.6154 48.2775 46.8374C44.7839 50.7677 39.8517 52.9079 34.7881 52.9079ZM21.6882 46.9966C21.539 46.9966 21.3906 46.935 21.2843 46.8142C17.838 42.9006 16.2444 37.7069 16.9122 32.5648C16.9504 32.2703 17.2207 32.0628 17.5149 32.1007C17.8095 32.139 18.0173 32.4088 17.979 32.7035C17.3511 37.5383 18.85 42.4224 22.0916 46.1034C22.2879 46.3263 22.2664 46.6662 22.0434 46.8626C21.9413 46.9524 21.8145 46.9966 21.6882 46.9966ZM49.3804 45.0595C49.2787 45.0595 49.1757 45.0306 49.0844 44.9703C48.8365 44.8065 48.7684 44.4727 48.9323 44.225C49.2975 43.6726 49.6334 43.0922 49.9309 42.5C50.0643 42.2346 50.3876 42.1275 50.6529 42.2609C50.9184 42.3942 51.0254 42.7176 50.8922 42.9829C50.5757 43.613 50.2181 44.2305 49.8297 44.8183C49.7262 44.9747 49.555 45.0595 49.3804 45.0595ZM56.7886 38.9903C56.6665 38.9903 56.5438 38.949 56.4429 38.8642C54.4733 37.2092 53.1856 34.8808 52.8169 32.3077C52.7747 32.0136 52.979 31.7411 53.273 31.6989C53.5676 31.6567 53.8396 31.8612 53.8816 32.1551C54.2128 34.4659 55.3681 36.556 57.1349 38.0406C57.3623 38.2316 57.3918 38.571 57.2006 38.7984C57.0943 38.9251 56.942 38.9903 56.7886 38.9903ZM52.7499 30.0488C52.5185 30.0488 52.3046 29.8982 52.2348 29.665C51.5398 27.3446 50.4089 25.2164 48.8739 23.3397C47.7314 21.9429 46.3906 20.7278 44.8886 19.7282C44.6412 19.5636 44.5742 19.2297 44.7388 18.9824C44.9033 18.7352 45.2369 18.668 45.4846 18.8325C47.0758 19.8915 48.4963 21.1788 49.7065 22.6585C51.3319 24.6456 52.5292 26.8991 53.2654 29.3563C53.3506 29.6408 53.189 29.9407 52.9044 30.0258C52.8529 30.0414 52.801 30.0488 52.7499 30.0488ZM17.4477 24.5871C17.2172 24.5871 17.004 24.4377 16.9334 24.2058C16.8469 23.9216 17.0071 23.621 17.2913 23.5345C18.0198 23.3127 18.7242 22.9998 19.3847 22.6045C19.6397 22.452 19.9699 22.535 20.1224 22.7899C20.275 23.0447 20.1919 23.3751 19.9371 23.5276C19.2015 23.9678 18.4167 24.3164 17.6046 24.5636C17.5524 24.5795 17.4995 24.5871 17.4477 24.5871ZM21.5793 22.1151C21.4408 22.1151 21.3025 22.0619 21.1973 21.956C20.9882 21.745 20.9896 21.4044 21.2005 21.1953C23.7002 18.717 26.8319 16.9676 30.257 16.1364C33.7715 15.2834 37.4503 15.4407 40.8956 16.5913L40.9203 16.5996C41.5393 16.8071 42.1542 17.0485 42.7478 17.3169C43.0185 17.4394 43.1387 17.758 43.0162 18.0286C42.8939 18.2993 42.5755 18.4198 42.3045 18.2972C41.7438 18.0437 41.1631 17.8156 40.5781 17.6195L40.556 17.6122C37.3017 16.5253 33.8284 16.3766 30.5106 17.1819C27.276 17.967 24.3185 19.619 21.958 21.9594C21.8531 22.0631 21.7161 22.1151 21.5793 22.1151Z" fill="#383839"/>
<path d="M34.7751 51.2027C33.0588 51.2027 31.3148 50.9298 29.6 50.3549C21.2401 47.552 16.6421 38.5936 19.1533 30.2053L11.8205 27.7464C11.2034 27.5402 10.8763 26.9334 11.0434 26.3035C11.2107 25.6734 11.7961 25.3084 12.4351 25.4355C14.2085 25.7874 16.0601 25.6937 17.7893 25.1649C19.5168 24.6388 21.1113 23.6847 22.401 22.4056C24.6801 20.146 27.5356 18.5509 30.6589 17.7929C33.8698 17.0136 37.2306 17.1597 40.378 18.2157C43.5256 19.2709 46.2951 21.1805 48.387 23.738C50.422 26.226 51.7385 29.2203 52.1944 32.3973C52.7211 36.0718 55.0102 39.2215 58.318 40.8225C58.8767 41.0933 59.1301 41.6915 58.9345 42.2772C58.8311 42.5869 58.61 42.845 58.328 42.9853C58.0505 43.1234 57.7263 43.1417 57.4148 43.0367L54.0064 41.8937C53.7247 41.7993 53.573 41.4944 53.6675 41.2126C53.7621 40.931 54.0671 40.7796 54.3484 40.8737L57.7577 42.017C57.8185 42.0375 57.8414 42.0258 57.8489 42.022C57.8756 42.0088 57.9011 41.9751 57.9141 41.9364C57.9469 41.838 57.888 41.8094 57.8489 41.7905C54.219 40.0335 51.7069 36.579 51.1295 32.5499C50.7015 29.567 49.4652 26.7554 47.5544 24.4191C45.5909 22.0188 42.9912 20.2263 40.036 19.2356C37.0809 18.2443 33.9261 18.1069 30.9127 18.8383C27.9798 19.5501 25.2984 21.0479 23.1584 23.1695C21.745 24.5714 19.9969 25.6172 18.1033 26.1938C16.2055 26.7743 14.1728 26.8771 12.2253 26.4907C12.1828 26.4822 12.1126 26.4683 12.0831 26.5796C12.0537 26.6903 12.1214 26.7128 12.1619 26.7263L19.9968 29.3537C20.2728 29.4463 20.4251 29.7417 20.3403 30.0203C20.3389 30.025 20.3369 30.0311 20.3353 30.0358C17.6645 38.006 21.9739 46.6636 29.9418 49.335C37.9111 52.0072 46.5691 47.6975 49.2422 39.7288C49.3368 39.4471 49.6419 39.2956 49.9232 39.3899L51.2312 39.8286C51.5128 39.923 51.6645 40.2279 51.57 40.5097C51.4756 40.7914 51.1707 40.943 50.8891 40.8486L50.0827 40.5782C47.6563 47.1003 41.4274 51.2025 34.7751 51.2027Z" fill="#383839"/>
<path d="M34.8006 46.729C33.5331 46.729 32.2606 46.5231 31.0236 46.1083C28.0248 45.1027 25.5972 42.9896 24.188 40.1582C22.7788 37.3268 22.5564 34.1161 23.562 31.1172C23.6565 30.8356 23.9614 30.6839 24.2431 30.7783C24.5247 30.8727 24.6765 31.1776 24.582 31.4593C22.6949 37.0873 25.738 43.2012 31.3658 45.0884C34.0925 46.0028 37.012 45.8008 39.5864 44.5197C42.1607 43.2385 44.0818 41.0315 44.996 38.3051C45.0905 38.0235 45.3955 37.8718 45.677 37.9661C45.9586 38.0606 46.1103 38.3655 46.0158 38.6472C45.0102 41.6459 42.8972 44.0736 40.0656 45.4828C38.4019 46.3107 36.6064 46.7289 34.8006 46.729Z" fill="#383839"/>
<path d="M46.0647 34.6587C46.0073 34.6587 45.9496 34.6495 45.8937 34.6307L26.0808 27.9858C25.9106 27.9286 25.7801 27.7904 25.7329 27.6172C25.6858 27.444 25.728 27.2587 25.8457 27.1231C29.0039 23.4857 33.9922 22.1241 38.5536 23.6544C41.4546 24.6276 43.8367 26.6541 45.2612 29.3607C45.3996 29.6235 45.2987 29.9488 45.0358 30.0871C44.773 30.2254 44.4475 30.1245 44.3092 29.8616C43.0142 27.4012 40.8487 25.559 38.2114 24.6742C34.3234 23.3699 30.0954 24.3762 27.2161 27.2318L45.4417 33.3444C45.3522 32.7267 45.2088 32.1162 45.0132 31.5212C44.9204 31.239 45.0738 30.935 45.3561 30.8422C45.6382 30.7491 45.9423 30.9028 46.0352 31.185C46.3444 32.125 46.5349 33.1005 46.6014 34.0843C46.6136 34.2635 46.5356 34.4368 46.3933 34.5464C46.2979 34.6203 46.1821 34.6587 46.0647 34.6587Z" fill="#383839"/>
<path d="M49.7525 40.4378C49.6958 40.4378 49.6381 40.4288 49.5814 40.4097L39.9398 37.1769C39.6582 37.0824 39.5065 36.7776 39.6009 36.4958C39.6955 36.2142 40.0006 36.0626 40.2819 36.1569L49.9233 39.3897C50.2049 39.4841 50.3567 39.789 50.2623 40.0706C50.187 40.2957 49.9773 40.4378 49.7525 40.4378Z" fill="#383839"/>
<path d="M37.6332 36.3739C37.5765 36.3739 37.5189 36.3649 37.4621 36.3459L17.8383 29.7654C17.5566 29.671 17.4049 29.3661 17.4994 29.0845C17.5939 28.8029 17.899 28.6511 18.1804 28.7456L37.8041 35.3261C38.0858 35.4205 38.2375 35.7254 38.143 36.0071C38.0675 36.2319 37.858 36.3739 37.6332 36.3739Z" fill="#383839"/>
<path d="M51.7054 38.8988C51.6484 38.8988 51.5908 38.8896 51.5345 38.8708L47.1627 37.4047C46.8811 37.3102 46.7294 37.0053 46.8238 36.7237C46.9184 36.4421 47.2234 36.2903 47.5048 36.3848L50.5223 37.3968C49.9867 36.3591 49.5805 35.2588 49.3101 34.1113C49.242 33.8221 49.4212 33.5325 49.7104 33.4644C50.0002 33.3962 50.2892 33.5756 50.3573 33.8646C50.7111 35.3666 51.3162 36.7804 52.1561 38.067C52.2812 38.2588 52.2712 38.5087 52.1312 38.6899C52.0273 38.824 51.8689 38.8988 51.7054 38.8988Z" fill="white"/>
<path d="M49.4551 32.4507C49.2044 32.4507 48.98 32.2745 48.9284 32.0192C48.4264 29.5331 47.2822 27.2224 45.6197 25.3373C43.9518 23.4462 41.7925 22.0182 39.3749 21.2075L39.3584 21.202C35.8599 20.0335 32.1044 20.2312 28.7825 21.7582C28.5126 21.8821 28.1932 21.764 28.0692 21.4941C27.9451 21.2242 28.0634 20.9048 28.3333 20.7808C31.9044 19.1392 35.9406 18.9264 39.6986 20.1815L39.7157 20.1872C42.3137 21.0584 44.6339 22.5932 46.4266 24.6258C48.2138 26.6524 49.4436 29.1353 49.9831 31.8063C50.0418 32.0976 49.8535 32.3812 49.5623 32.4401C49.5262 32.4472 49.4903 32.4507 49.4551 32.4507Z" fill="white"/>
<path d="M21.2637 27.0517C21.0755 27.0517 20.8927 26.9528 20.7941 26.7768C20.6487 26.5176 20.741 26.1898 21.0002 26.0445C22.0455 25.4584 23.0094 24.731 23.8654 23.8826C24.6316 23.123 25.4753 22.4424 26.3731 21.8599C26.6224 21.6983 26.9555 21.7691 27.117 22.0183C27.2787 22.2675 27.2078 22.6006 26.9586 22.7623C26.1225 23.3048 25.3366 23.9389 24.6227 24.6467C23.6979 25.5633 22.6562 26.3494 21.5262 26.983C21.4432 27.0296 21.3528 27.0517 21.2637 27.0517Z" fill="white"/>
<path d="M24.1039 29.6426C24.0472 29.6426 23.9896 29.6336 23.9329 29.6145L19.0234 27.9682C18.7418 27.8737 18.59 27.5689 18.6844 27.2871C18.7789 27.0055 19.0836 26.8538 19.3655 26.9482L24.2748 28.5945C24.5565 28.6889 24.7083 28.9938 24.6138 29.2754C24.5385 29.5005 24.3287 29.6426 24.1039 29.6426Z" fill="white"/>
<path d="M27.2596 30.701C27.2029 30.701 27.1452 30.692 27.0885 30.6729L25.686 30.2026C25.4044 30.1082 25.2526 29.8033 25.347 29.5216C25.4415 29.2399 25.7463 29.0881 26.0281 29.1826L27.4306 29.6529C27.7123 29.7474 27.864 30.0522 27.7696 30.334C27.6941 30.559 27.4844 30.701 27.2596 30.701Z" fill="white"/>
<path d="M44.4409 36.4627C44.3842 36.4627 44.3266 36.4536 44.2698 36.4346L29.1921 31.3784C28.9105 31.2839 28.7587 30.9791 28.8531 30.6973C28.9476 30.4157 29.2524 30.2639 29.5342 30.3584L44.6119 35.4146C44.8935 35.509 45.0452 35.8139 44.9507 36.0956C44.8753 36.3206 44.6658 36.4627 44.4409 36.4627Z" fill="white"/>
<path d="M24.7872 44.3089C24.6385 44.3089 24.4906 44.2477 24.3843 44.1277C21.7319 41.133 20.4864 37.1508 20.9673 33.2021C21.0033 32.9072 21.2717 32.6976 21.5663 32.7332C21.8612 32.7691 22.0712 33.0373 22.0352 33.3322C21.5915 36.9754 22.7412 40.6502 25.1895 43.4144C25.3865 43.6368 25.3659 43.9768 25.1436 44.1737C25.0413 44.2644 24.9138 44.3089 24.7872 44.3089Z" fill="white"/>
<path d="M27.4005 46.5817C27.2985 46.5817 27.1954 46.5527 27.104 46.4922C26.8519 46.3252 26.6023 46.1478 26.3623 45.9651C26.126 45.7851 26.0802 45.4476 26.2603 45.2113C26.4403 44.975 26.7779 44.9292 27.0141 45.1093C27.2354 45.2778 27.4655 45.4413 27.6981 45.5954C27.9457 45.7594 28.0136 46.0932 27.8495 46.3408C27.746 46.497 27.5749 46.5817 27.4005 46.5817Z" fill="white"/>
<path d="M34.7888 48.8054C33.3134 48.8054 31.826 48.57 30.3797 48.0869L30.3646 48.082C29.967 47.9486 29.5734 47.7968 29.1927 47.63C28.9206 47.5109 28.7966 47.1936 28.9158 46.9216C29.0351 46.6495 29.3523 46.5257 29.6243 46.6447C29.9757 46.7987 30.3392 46.9389 30.7047 47.0615L30.72 47.0666C35.2409 48.5762 40.2012 47.4643 43.6654 44.1641C43.8808 43.9592 44.221 43.9674 44.4258 44.1825C44.6308 44.3977 44.6225 44.738 44.4074 44.943C41.7622 47.463 38.3109 48.8054 34.7888 48.8054Z" fill="white"/>
<path d="M45.6014 43.3087C45.4914 43.3087 45.3801 43.275 45.2845 43.205C45.0447 43.0297 44.9923 42.6932 45.1676 42.4533C45.4707 42.0385 45.7515 41.601 46.002 41.1528C46.1468 40.8935 46.4743 40.8007 46.734 40.9457C46.9932 41.0906 47.0859 41.4184 46.941 41.6776C46.6694 42.1637 46.365 42.6384 46.0362 43.0881C45.9308 43.2322 45.7672 43.3087 45.6014 43.3087Z" fill="white"/>
<path d="M52.5921 41.3965C52.5566 41.3965 52.5221 41.3933 52.4866 41.3868C52.4522 41.3793 52.4189 41.3685 52.3866 41.3556C52.3542 41.3417 52.3231 41.3255 52.293 41.3062C52.2639 41.2868 52.237 41.2642 52.2113 41.2395C52.1111 41.1394 52.0542 41.0006 52.0542 40.8586C52.0542 40.8242 52.0573 40.7887 52.065 40.7543C52.0714 40.7199 52.0822 40.6855 52.0951 40.6532C52.1091 40.6209 52.1251 40.5897 52.1446 40.5607C52.1639 40.5305 52.1865 40.5037 52.2113 40.4789C52.237 40.4542 52.2639 40.4316 52.293 40.4122C52.3231 40.3918 52.3542 40.3756 52.3866 40.3627C52.4189 40.3487 52.4521 40.338 52.4866 40.3315C52.5566 40.3175 52.6276 40.3175 52.6975 40.3315C52.7319 40.338 52.7653 40.3487 52.7975 40.3627C52.8299 40.3756 52.8611 40.3918 52.8911 40.4122C52.9203 40.4316 52.9481 40.4542 52.9729 40.4789C52.9976 40.5037 53.0202 40.5305 53.0396 40.5607C53.059 40.5897 53.0751 40.6209 53.0891 40.6532C53.102 40.6855 53.1128 40.7199 53.1192 40.7543C53.1267 40.7887 53.13 40.8242 53.13 40.8586C53.13 41.0006 53.073 41.1394 52.9729 41.2395C52.8717 41.3395 52.7329 41.3965 52.5921 41.3965Z" fill="#383839"/>
<path d="M52.5514 39.1815C52.495 39.1815 52.4374 39.1726 52.3809 39.1536L51.5352 38.8711C51.2534 38.777 51.1013 38.4723 51.1955 38.1905C51.2896 37.9087 51.5946 37.757 51.876 37.8507L52.7217 38.1332C53.0035 38.2273 53.1556 38.5321 53.0614 38.8138C52.9863 39.0391 52.7765 39.1815 52.5514 39.1815Z" fill="white"/>
<path d="M18.9844 27.933C18.9279 27.933 18.8704 27.9241 18.814 27.9051L17.9682 27.6226C17.6865 27.5285 17.5344 27.2238 17.6284 26.942C17.7226 26.6603 18.0274 26.5084 18.309 26.6022L19.1548 26.8847C19.4365 26.9788 19.5886 27.2836 19.4946 27.5653C19.4192 27.7906 19.2094 27.933 18.9844 27.933Z" fill="white"/>
<path d="M52.6791 51.6898C51.3741 51.6898 50.3125 50.6282 50.3125 49.3232C50.3125 48.0182 51.3741 46.9565 52.6791 46.9565C53.9841 46.9565 55.0458 48.0182 55.0458 49.3232C55.0458 50.6282 53.9841 51.6898 52.6791 51.6898ZM52.6791 48.0323C51.9673 48.0323 51.3882 48.6114 51.3882 49.3232C51.3882 50.035 51.9673 50.6141 52.6791 50.6141C53.3909 50.6141 53.97 50.035 53.97 49.3232C53.97 48.6114 53.3909 48.0323 52.6791 48.0323Z" fill="#383839"/>
</svg>
